<svg width="512" height="512" xmlns="http://www.w3.org/2000/svg">

 <g>
  <title>background</title>
  <rect fill="none" id="canvas_background" height="602" width="802" y="-1" x="-1"/>
 </g>
 <g>
  <title>Layer 1</title>
  <g id="svg_1">
   <g id="svg_2">
    <path fill="#ffffff" id="svg_3" d="m448,0l-384,0c-35.296,0 -64,28.704 -64,64l0,384c0,35.296 28.704,64 64,64l192,0l0,-176l-64,0l0,-80l64,0l0,-64c0,-53.024 42.976,-96 96,-96l64,0l0,80l-32,0c-17.664,0 -32,-1.664 -32,16l0,64l80,0l-32,80l-48,0l0,176l96,0c35.296,0 64,-28.704 64,-64l0,-384c0,-35.296 -28.704,-64 -64,-64z"/>
   </g>
  </g>
  <g id="svg_4"/>
  <g id="svg_5"/>
  <g id="svg_6"/>
  <g id="svg_7"/>
  <g id="svg_8"/>
  <g id="svg_9"/>
  <g id="svg_10"/>
  <g id="svg_11"/>
  <g id="svg_12"/>
  <g id="svg_13"/>
  <g id="svg_14"/>
  <g id="svg_15"/>
  <g id="svg_16"/>
  <g id="svg_17"/>
  <g id="svg_18"/>
 </g>
</svg>