<?xml version="1.0" encoding="iso-8859-1"?>
<!-- Generator: Adobe Illustrator 19.0.0, SVG Export Plug-In . SVG Version: 6.00 Build 0)  -->
<svg version="1.1" id="Layer_1" xmlns="http://www.w3.org/2000/svg" xmlns:xlink="http://www.w3.org/1999/xlink" x="0px" y="0px"
	 viewBox="0 0 511.844 511.844" style="enable-background:new 0 0 511.844 511.844;" xml:space="preserve">
<polygon style="fill:#8CC153;" points="193.152,10.524 106.631,160.369 198.978,213.696 245.706,132.768 316.278,10.524 "/>
<polygon style="fill:#A0D468;" points="316.31,10.524 193.175,10.524 283.257,166.57 246.557,187.767 309.374,200.732 
	372.199,213.712 392.38,152.824 412.562,91.921 375.604,113.258 "/>
<polygon style="fill:#8CC153;" points="61.575,458.363 234.608,458.363 234.608,351.74 141.16,351.74 0.015,351.74 "/>
<polygon style="fill:#A0D468;" points="0,351.709 61.567,458.363 151.657,302.318 188.364,323.498 168.191,262.604 148.017,201.715 
	85.193,214.696 22.368,227.676 59.31,248.998 "/>
<polygon style="opacity:0.1;enable-background:new    ;" points="165.77,351.74 61.567,455.022 61.567,458.363 123.119,351.74 "/>
<polygon style="fill:#8CC153;" points="511.844,352.022 425.339,202.169 332.992,255.496 379.696,336.432 450.269,458.645 "/>
<polygon style="fill:#A0D468;" points="450.269,458.676 511.828,352.053 331.649,352.053 331.649,309.66 289.006,357.582 
	246.347,405.506 289.006,453.428 331.649,501.32 331.649,458.676 "/>
<polygon style="opacity:0.1;enable-background:new    ;" points="367.388,315.096 508.938,353.709 511.828,352.022 388.725,352.022 
	"/>
<polygon style="opacity:0.1;enable-background:new    ;" points="233.398,154.089 196.049,12.195 193.168,10.54 254.719,117.148 "/>
<g>
</g>
<g>
</g>
<g>
</g>
<g>
</g>
<g>
</g>
<g>
</g>
<g>
</g>
<g>
</g>
<g>
</g>
<g>
</g>
<g>
</g>
<g>
</g>
<g>
</g>
<g>
</g>
<g>
</g>
</svg>
