<svg width="512.00203" height="512" xmlns="http://www.w3.org/2000/svg">

 <g>
  <title>background</title>
  <rect fill="none" id="canvas_background" height="602" width="802" y="-1" x="-1"/>
 </g>
 <g>
  <title>Layer 1</title>
  <path fill="#ffffff" stroke-width="0" stroke="null" id="svg_1" d="m191.01172,419.04297c-22.14063,0 -44.92969,-1.79297 -67.85547,-5.38672c-40.37891,-6.33594 -81.25391,-27.45703 -92.82031,-33.78125l-30.33594,-16.58594l32.84375,-10.80078c35.90234,-11.80469 57.74219,-19.1289 84.77734,-30.59765c-27.07031,-13.10938 -47.93359,-36.69141 -57.97656,-67.17579l-7.64062,-23.19531l6.26562,0.95703c-5.9414,-5.98828 -10.63281,-12.0664 -14.26953,-17.59375c-12.93359,-19.64453 -19.78125,-43.64843 -18.32422,-64.21875l1.4375,-20.24609l12.1211,4.69531c-5.11329,-9.65625 -8.8086,-19.96875 -10.98047,-30.77734c-5.29297,-26.35938 -0.86328,-54.36328 12.47656,-78.85156l10.55859,-19.38282l14.1211,16.96094c44.66015,53.64844 101.22656,85.47266 168.36328,94.78906c-2.74219,-18.90234 -0.6875,-37.14453 6.11328,-53.49609c7.91797,-19.03906 22.00391,-35.18359 40.72266,-46.69141c20.78906,-12.77734 46,-18.96875 70.98828,-17.43359c26.51172,1.62891 50.58203,11.5625 69.69922,28.74609c9.33593,-2.42578 16.21484,-5.01562 25.51171,-8.51562c5.59375,-2.10547 11.9375,-4.4961 19.875,-7.23047l29.25,-10.07813l-19.07421,54.47657c1.25781,-0.10547 2.55468,-0.19532 3.91015,-0.25391l31.23438,-1.41406l-18.46094,25.23047c-1.0586,1.44531 -1.32813,1.85547 -1.70313,2.42187c-1.48828,2.24219 -3.33984,5.03125 -28.67968,38.86719c-6.34375,8.47266 -9.51172,19.50781 -8.92188,31.07812c2.24609,43.96875 -3.14844,83.75 -16.04297,118.23438c-12.19531,32.625 -31.09375,60.61719 -56.16406,83.19922c-31.02344,27.9375 -70.58203,47.0664 -117.58203,56.84765c-23.05469,4.79688 -47.8125,7.20313 -73.4375,7.20313zm0,0"/>
  <path d="m143.50104,173.45313c0,1 0.85274,1.1731 2,2c1.814,1.30745 5.07843,2.78986 8,4c4.13171,1.71141 7.80565,3.44841 12,5c3.867,1.4305 9.76993,2.54863 14,4c4.82303,1.65482 10.94366,2.18834 14,3c4.92821,1.30876 8.90779,2.49623 13,3c2.97752,0.36655 7.03874,0.51945 10,1c3.12144,0.50655 5.02582,0.67964 7,1c3.12144,0.50655 4.82375,1.48625 7,2c1.9465,0.4595 3,0 4,1l1,0l1,0" id="svg_2" fill-opacity="null" stroke-opacity="null" stroke-width="null" stroke="null" fill="none"/>
 </g>
</svg>