<?xml version="1.0" encoding="iso-8859-1"?>
<!-- Generator: Adobe Illustrator 21.0.2, SVG Export Plug-In . SVG Version: 6.00 Build 0)  -->
<svg xmlns="http://www.w3.org/2000/svg" xmlns:xlink="http://www.w3.org/1999/xlink" version="1.1" id="Layer_1" x="0px" y="0px" viewBox="0 0 40 40" style="enable-background:new 0 0 40 40;" xml:space="preserve">
<g>
	<path style="fill:#98CCFD;" d="M9.999,38.5c-0.354,0-0.687-0.12-0.959-0.348c-0.635-0.529-0.721-1.477-0.192-2.113l4.854-5.825   l1.787-8.107c0.224-0.607,0.53-1.217,0.714-1.565l3.996,0.552L16.41,31.513c-0.059,0.163-0.146,0.313-0.257,0.448l-5,6   C10.867,38.303,10.446,38.5,9.999,38.5z"/>
	<path style="fill:#4788C7;" d="M16.486,21.086l3.03,0.418l-3.578,9.838c-0.039,0.108-0.096,0.208-0.171,0.297l-5,6   C10.578,37.869,10.297,38,9.999,38c-0.165,0-0.409-0.04-0.639-0.231c-0.424-0.353-0.481-0.985-0.128-1.409l4.776-5.731l0.156-0.187   l0.052-0.238l1.746-7.922C16.126,21.84,16.324,21.413,16.486,21.086 M15.928,20c0,0-0.551,0.962-0.928,2l-1.76,7.988L8.463,35.72   c-0.707,0.849-0.592,2.109,0.256,2.817C9.094,38.848,9.547,39,9.999,39c0.573,0,1.142-0.245,1.538-0.72l5-6   c0.148-0.178,0.264-0.379,0.343-0.597l4-11L15.928,20L15.928,20z"/>
</g>
<g>
	<path style="fill:#DFF0FE;" d="M11.001,23.5c-0.139,0-0.278-0.02-0.412-0.058c-0.386-0.11-0.706-0.364-0.9-0.714   c-0.195-0.35-0.241-0.755-0.131-1.14l2-7c0.108-0.379,0.355-0.695,0.697-0.89l7-4C19.482,9.568,19.739,9.5,19.999,9.5   c0.538,0,1.037,0.29,1.304,0.756c0.199,0.348,0.25,0.752,0.145,1.139c-0.105,0.387-0.355,0.709-0.703,0.908L14.274,16l-1.833,6.413   C12.259,23.053,11.667,23.5,11.001,23.5z"/>
	<path style="fill:#4788C7;" d="M19.999,10L19.999,10c0.359,0,0.692,0.193,0.87,0.504c0.133,0.232,0.167,0.501,0.097,0.759   c-0.07,0.258-0.237,0.472-0.469,0.605l-6.293,3.596l-0.354,0.202l-0.112,0.391l-1.776,6.217C11.839,22.702,11.444,23,11.001,23   c-0.092,0-0.185-0.013-0.276-0.039c-0.257-0.073-0.47-0.242-0.599-0.476c-0.13-0.233-0.161-0.503-0.087-0.76l2-7.001   c0.072-0.252,0.237-0.463,0.465-0.593l7-4C19.657,10.044,19.824,10,19.999,10 M19.998,9c-0.336,0-0.677,0.085-0.991,0.264l-7,4   c-0.454,0.259-0.788,0.685-0.931,1.187l-2,7c-0.304,1.062,0.312,2.169,1.374,2.472C10.634,23.976,10.819,24,11.001,24   c0.87,0,1.671-0.573,1.922-1.451l1.776-6.217l6.293-3.596c0.959-0.548,1.292-1.77,0.744-2.729C21.367,9.362,20.693,9,19.998,9   L19.998,9z"/>
</g>
<g>
	<path style="fill:#DFF0FE;" d="M29.998,22.5c-0.27,0-0.536-0.074-0.77-0.214l-5-3c-0.272-0.164-0.482-0.404-0.607-0.695l-3-7   c-0.158-0.369-0.163-0.776-0.014-1.148c0.148-0.372,0.434-0.664,0.802-0.822c0.188-0.081,0.387-0.122,0.59-0.122   c0.601,0,1.143,0.357,1.38,0.91l2.809,6.554l4.584,2.75c0.344,0.206,0.586,0.534,0.684,0.922s0.037,0.792-0.169,1.135   C31.012,22.228,30.531,22.5,29.998,22.5z"/>
	<path style="fill:#4788C7;" d="M21.999,9.999L21.999,9.999c0.401,0,0.762,0.238,0.92,0.607l2.745,6.405l0.127,0.297l0.277,0.166   l4.445,2.667c0.229,0.137,0.391,0.356,0.456,0.615c0.065,0.259,0.025,0.528-0.113,0.757C30.675,21.819,30.353,22,29.998,22   c-0.179,0-0.356-0.049-0.512-0.143l-5-3c-0.181-0.109-0.321-0.269-0.405-0.463l-3-7c-0.105-0.245-0.108-0.517-0.009-0.765   c0.099-0.248,0.289-0.442,0.535-0.548C21.732,10.027,21.864,9.999,21.999,9.999 M21.999,8.999c-0.263,0-0.53,0.052-0.787,0.162   c-1.016,0.435-1.486,1.611-1.051,2.626l3,7c0.166,0.387,0.449,0.711,0.81,0.927l5,3C29.293,22.908,29.648,23,29.998,23   c0.68,0,1.342-0.347,1.717-0.972c0.568-0.947,0.261-2.175-0.686-2.744l-4.445-2.667l-2.745-6.405   C23.513,9.453,22.775,8.999,21.999,8.999L21.999,8.999z"/>
</g>
<g>
	<path style="fill:#98CCFD;" d="M20.621,11.591c-0.158-0.369-0.163-0.776-0.014-1.148c0.148-0.372,0.434-0.664,0.802-0.822   c0.188-0.081,0.387-0.122,0.59-0.122c0.601,0,1.143,0.357,1.38,0.91l2.577,6.014l-2.566,1.627L20.621,11.591z"/>
	<g>
		<path style="fill:#4788C7;" d="M21.999,9.999L21.999,9.999c0.401,0,0.762,0.238,0.92,0.607l2.41,5.623l-1.711,1.085l-2.537-5.92    c-0.105-0.245-0.109-0.517-0.009-0.765c0.099-0.248,0.289-0.442,0.535-0.548C21.732,10.027,21.864,9.999,21.999,9.999     M21.999,8.999c-0.263,0-0.53,0.052-0.787,0.162c-1.016,0.435-1.486,1.611-1.051,2.626l3,7l3.422-2.17l-2.745-6.405    C23.513,9.453,22.775,8.999,21.999,8.999L21.999,8.999z"/>
	</g>
</g>
<g>
	<circle style="fill:#DFF0FE;" cx="23.5" cy="4.5" r="3"/>
	<g>
		<path style="fill:#4788C7;" d="M23.5,2C24.878,2,26,3.122,26,4.5S24.878,7,23.5,7S21,5.878,21,4.5S22.122,2,23.5,2 M23.5,1    C21.567,1,20,2.567,20,4.5S21.567,8,23.5,8S27,6.433,27,4.5S25.433,1,23.5,1L23.5,1z"/>
	</g>
</g>
<g>
	<path style="fill:#B6DCFE;" d="M18.329,24.42c-0.168,0-0.337-0.015-0.508-0.046c-0.744-0.135-1.389-0.551-1.819-1.171   c-0.429-0.621-0.591-1.371-0.457-2.113l2.278-7.119l-1.865,1.066l-1.668-2.501l4.965-2.837c0.219-0.125,0.468-0.188,0.74-0.189   l0.309,0L20.309,9.5h1.631c1.396,0,1.557,0.697,1.56,3.436l-2.388,9.125C20.86,23.443,19.693,24.42,18.329,24.42z"/>
	<g>
		<path style="fill:#4788C7;" d="M21.94,10c0.844,0,1.053,0.107,1.06,2.872l-2.371,9.063l-0.01,0.037l-0.007,0.038    c-0.201,1.107-1.161,1.911-2.283,1.911c-0.141,0-0.282-0.013-0.42-0.038c-0.611-0.111-1.142-0.454-1.496-0.964    c-0.342-0.494-0.478-1.089-0.385-1.68l1.882-5.891l0.782-2.447l-2.23,1.275l-0.345,0.197l-1.112-1.668l4.5-2.571    c0.143-0.082,0.309-0.123,0.493-0.123L20.566,10H21.94 M21.94,9C21.621,9,20,9,20,9l-0.004,0.009    c-0.336,0-0.675,0.076-0.988,0.255l-5.43,3.103l2.224,3.336l1.156-0.66L15.054,21c-0.329,1.806,0.869,3.537,2.676,3.865    c0.201,0.037,0.401,0.054,0.599,0.054c1.576,0,2.975-1.125,3.267-2.732L24,13C24,10.565,23.989,9,21.94,9L21.94,9z"/>
	</g>
</g>
<g>
	<path style="fill:#B6DCFE;" d="M26.001,38.5c-0.601,0-1.143-0.357-1.38-0.91l-2.963-6.914l-5.219-6.926l-0.061-0.114l-0.047-0.047   c-0.656-0.658-0.95-1.592-0.785-2.5l0.135-0.416c2.389,1.022,4.857,2.128,5.337,2.425l3.236,6.076   c0.059,0.096,0.094,0.165,0.125,0.235l3,6.999c0.158,0.369,0.163,0.776,0.014,1.148c-0.148,0.372-0.434,0.664-0.802,0.822   C26.402,38.459,26.204,38.5,26.001,38.5z"/>
	<path style="fill:#4788C7;" d="M16.013,21.36c2.03,0.875,4.029,1.771,4.633,2.101l3.168,5.949l0.017,0.032l0.019,0.031   c0.027,0.043,0.05,0.088,0.07,0.134l3,7c0.105,0.245,0.109,0.517,0.009,0.765c-0.099,0.248-0.289,0.443-0.534,0.547   C26.268,37.973,26.136,38,26.001,38c-0.401,0-0.762-0.238-0.92-0.607l-2.939-6.858l-0.048-0.111l-0.073-0.097l-5.149-6.832   l-0.021-0.037l-0.068-0.122l-0.099-0.099C16.187,22.739,15.943,22.049,16.013,21.36 M15.374,19.999L15.054,21   c-0.203,1.114,0.178,2.197,0.922,2.943C15.986,23.96,15.99,23.983,16,24l5.222,6.929l2.939,6.858   C24.487,38.546,25.225,39,26.001,39c0.263,0,0.53-0.052,0.787-0.162c1.016-0.435,1.486-1.611,1.051-2.626l-3-7   c-0.041-0.094-0.088-0.186-0.143-0.272l-3.273-6.146C21.498,22.601,15.374,19.999,15.374,19.999L15.374,19.999z"/>
</g>
</svg>
